# xmcd CD database file
#
# Track frame offsets:
#	150
#	25252
#	44162
#	67752
#	86495
#	110902
#	136360
#	158410
#	180837
#	208360
#
# Disc length: 2996 seconds
#
# Revision: 1
# Processed by: cddbd v1.5PL3 Copyright (c) Steve Scherf et al.
# Submitted via: CDex 1.51
#
DISCID=850bb20a
DTITLE=Kimiko Itoh - Follow Me
DYEAR=1989
DGENRE=Jazz
TTITLE0=Follow Me
TTITLE1=Second Chance
TTITLE2=Meet Me On The Moon
TTITLE3=So Foolish Is Love
TTITLE4=Love
TTITLE5=New York State Of Mind
TTITLE6=Intimate Stranger
TTITLE7=He's Gone
TTITLE8=Bridge Over Troubled Water
TTITLE9=If I Loved You
EXTD=Produced by Steve Gadd and Kiyoshi Itoh YEAR: 1989
EXTT0=
EXTT1=
EXTT2=
EXTT3=
EXTT4=
EXTT5=
EXTT6=
EXTT7=
EXTT8=
EXTT9=
PLAYORDER=
